<svg xmlns="http://www.w3.org/2000/svg" viewBox="0 0 64 64">
  <defs>
    <linearGradient id="g" x1="0%" y1="0%" x2="100%" y2="100%">
      <stop offset="0%" style="stop-color:#a855f7"/>
      <stop offset="100%" style="stop-color:#ec4899"/>
    </linearGradient>
  </defs>
  <path d="M32 4C20 4 10 14 10 26c0 18 22 34 22 34s22-16 22-34C54 14 44 4 32 4z" fill="url(#g)"/>
  <path d="M32 16a8 8 0 100 16 8 8 0 000-16zm0 4a4 4 0 110 8 4 4 0 010-8z" fill="white" opacity="0.9"/>
  <path d="M24 36c0-2 3.6-4 8-4s8 2 8 4v2H24v-2z" fill="white" opacity="0.9"/>
</svg>
